#!OML:ASF F:\VICON\USERDATA\INSTALL\Justin_Nancy\Justin_Nancy.ASF
:FULLY-SPECIFIED
:DEGREES
244
root -8.35557 17.4983 2.44556 -2.06254 -2.28727 3.40834
lowerback 6.63922 -0.0845313 -4.11778
upperback 0.212423 -0.394529 0.868941
thorax -3.47249 -0.12252 3.25342
lowerneck -17.5074 -2.65524 -9.06468
upperneck 22.9627 -1.93526 3.21556
head 10.3851 -1.30529 2.38859
rclavicle 7.66563e-015 1.39149e-014
rhumerus -32.063 -16.109 -78.9823
rradius 29.7752
rwrist 8.90259
rhand -13.2412 10.5664
rfingers 7.12502
rthumb 12.8606 -19.0174
lclavicle 7.66563e-015 1.39149e-014
lhumerus -32.3506 14.2961 82.9689
lradius 25.3791
lwrist -9.46995
lhand -18.698 19.8325
lfingers 7.12502
lthumb 7.59667 49.6761
rfemur -20.6249 -1.18037 15.2823
rtibia 65.6987
rfoot -5.52022 -8.44093
rtoes 6.16202
lfemur -10.9071 -2.15883 -29.5319
ltibia 24.951
lfoot -8.97525 -6.35748
ltoes 8.87642
245
root -8.35664 17.4869 2.55273 -1.9649 -1.99786 3.21519
lowerback 6.60929 -0.184349 -4.09264
upperback 0.23833 -0.519752 0.98466
thorax -3.41708 -0.186048 3.37082
lowerneck -17.7634 -2.68338 -8.94086
upperneck 23.1215 -1.9684 3.14902
head 10.4916 -1.3192 2.34031
rclavicle -6.85807e-015 4.77083e-015
rhumerus -32.1548 -16.1229 -78.8626
rradius 29.9379
rwrist 8.4821
rhand -13.0542 10.3083
rfingers 7.12502
rthumb 13.0409 -19.264
lclavicle -6.85807e-015 4.77083e-015
lhumerus -32.0691 13.6975 83.2243
lradius 25.8879
lwrist -8.7029
lhand -18.8146 19.2577
lfingers 7.12502
lthumb 7.48412 49.1054
rfemur -21.4648 -1.05791 15.4798
rtibia 64.855
rfoot -6.33076 -8.86533
rtoes 6.35828
lfemur -10.9272 -2.31233 -29.3639
ltibia 25.5511
lfoot -9.57813 -6.4617
ltoes 9.48625
246
root -8.35853 17.4785 2.65963 -1.89284 -1.52288 3.11054
lowerback 6.77679 -0.30276 -4.19807
upperback 0.123117 -0.689969 1.10628
thorax -3.61322 -0.261158 3.57642
lowerneck -17.6723 -2.75022 -9.07082
upperneck 23.1878 -2.06304 3.25807
head 10.508 -1.363 2.38882
rclavicle 5.8393e-016 -5.96354e-015
rhumerus -32.4979 -16.0609 -78.621
rradius 30.135
rwrist 7.45554
rhand -12.7726 9.35458
rfingers 7.12502
rthumb 13.3124 -20.2002
lclavicle 5.8393e-016 -5.96354e-015
lhumerus -32.0262 12.8768 83.5558
lradius 26.4356
lwrist -7.69624
lhand -18.5036 18.7828
lfingers 7.12502
lthumb 7.78433 48.6195
rfemur -22.1908 -1.07529 15.5646
rtibia 63.8355
rfoot -6.76254 -9.30259
rtoes 4.75133
lfemur -10.8329 -2.52927 -29.3003
ltibia 25.9978
lfoot -9.98072 -6.69982
ltoes 10.2678
247
root -8.35297 17.4646 2.77909 -1.90081 -1.06239 3.34151
lowerback 6.92732 -0.460895 -4.52264
upperback -0.000672938 -0.934645 1.11874
thorax -3.79904 -0.369656 3.80052
lowerneck -17.5552 -2.68019 -9.25565
upperneck 23.3213 -1.96495 3.41511
head 10.5313 -1.31938 2.49262
rclavicle 5.96354e-015 3.97569e-015
rhumerus -32.7366 -15.8712 -78.4229
rradius 30.0907
rwrist 6.80371
rhand -13.2292 10.0461
rfingers 7.12502
rthumb 12.8722 -19.537
lclavicle 5.96354e-015 3.97569e-015
lhumerus -32.0733 12.2258 83.8435
lradius 27.0802
lwrist -6.74691
lhand -18.6159 18.9141
lfingers 7.12502
lthumb 7.67593 48.7548
rfemur -22.7421 -1.16105 15.1745
rtibia 62.6786
rfoot -7.11018 -9.65868
rtoes 1.91855
lfemur -10.5133 -2.70467 -29.6472
ltibia 26.3205
lfoot -10.4431 -6.88385
ltoes 11.1228
248
root -8.34713 17.4408 2.90224 -1.92355 -0.765622 3.6414
lowerback 6.86316 -0.557913 -4.8992
upperback 0.0397631 -1.09156 1.08562
thorax -3.69957 -0.444553 3.99219
lowerneck -17.5633 -2.6516 -9.21406
upperneck 23.2855 -1.92887 3.3888
head 10.5162 -1.30146 2.48086
rclavicle 2.16178e-014 3.97569e-015
rhumerus -32.7382 -15.8428 -78.2722
rradius 29.8175
rwrist 6.68426
rhand -13.603 11.5854
rfingers 7.12502
rthumb 12.5119 -18.02
lclavicle 2.16178e-014 3.97569e-015
lhumerus -31.8514 11.89 84.029
lradius 27.6498
lwrist -6.46638
lhand -18.5035 19.6992
lfingers 7.12502
lthumb 7.78436 49.5359
rfemur -23.2542 -1.16782 14.6759
rtibia 61.4024
rfoot -7.67085 -9.84071
rtoes -1.35503
lfemur -10.1394 -2.71017 -30.0798
ltibia 26.6007
lfoot -11.0758 -6.94373
ltoes 10.8686
249
root -8.3462 17.4235 3.02066 -1.93484 -0.474037 3.69731
lowerback 6.77921 -0.587452 -5.10858
upperback 0.166862 -1.13844 1.14072
thorax -3.51026 -0.472025 4.16904
lowerneck -17.7402 -2.75023 -9.12396
upperneck 23.229 -2.04771 3.28542
head 10.5361 -1.3577 2.41002
rclavicle -2.34814e-015 9.54166e-015
rhumerus -32.6467 -15.9819 -78.0264
rradius 29.6272
rwrist 6.449
rhand -13.2019 11.9095
rfingers 7.12502
rthumb 12.8986 -17.6719
lclavicle -2.34814e-015 9.54166e-015
lhumerus -31.4605 11.4562 84.3189
lradius 28.175
lwrist -6.41289
lhand -17.9154 22.1591
lfingers 7.12502
lthumb 8.35196 51.974
rfemur -23.6993 -1.00607 14.5055
rtibia 59.9649
rfoot -8.52539 -10.1378
rtoes -3.09255
lfemur -9.84199 -2.63779 -30.1939
ltibia 26.9047
lfoot -11.6233 -7.1953
ltoes 10.8536
250
root -8.34946 17.4128 3.13448 -1.95636 -0.0500747 3.56695
lowerback 6.91886 -0.654271 -5.16599
upperback 0.191257 -1.23576 1.22434
thorax -3.54969 -0.518127 4.30091
lowerneck -18.0478 -2.85574 -8.99675
upperneck 23.3611 -2.18448 3.21502
head 10.6504 -1.41794 2.34383
rclavicle -1.45361e-014 1.74931e-014
rhumerus -32.7485 -15.9314 -77.8899
rradius 29.7004
rwrist 6.08373
rhand -12.8797 10.5926
rfingers 7.12502
rthumb 13.2092 -18.9689
lclavicle -1.45361e-014 1.74931e-014
lhumerus -31.2192 10.9054 84.5311
lradius 28.7633
lwrist -6.30503
lhand -17.8084 21.6481
lfingers 7.12502
lthumb 8.45524 51.4588
rfemur -24.0282 -0.884556 14.5753
rtibia 58.3588
rfoot -9.31576 -10.5075
rtoes -2.89501
lfemur -9.53742 -2.75918 -30.0789
ltibia 27.2265
lfoot -12.1239 -7.38164
ltoes 10.9323
251
root -8.34998 17.4025 3.2475 -1.87595 0.304107 3.44771
lowerback 6.86689 -0.734787 -5.20764
upperback 0.248465 -1.33857 1.3294
thorax -3.446 -0.572284 4.44181
lowerneck -18.4709 -2.91842 -8.87703
upperneck 23.4923 -2.2184 3.03743
head 10.7791 -1.44404 2.25385
rclavicle -1.87852e-014 -1.19271e-014
rhumerus -32.7544 -15.8313 -77.7231
rradius 29.7195
rwrist 6.0892
rhand -13.0231 10.5722
rfingers 7.12502
rthumb 13.0709 -18.9983
lclavicle -1.87852e-014 -1.19271e-014
lhumerus -30.8775 10.286 84.8123
lradius 29.3774
lwrist -5.96191
lhand -18.4443 20.3454
lfingers 7.12502
lthumb 7.84148 50.18
rfemur -24.435 -0.755451 14.5911
rtibia 56.624
rfoot -10.0435 -10.7747
rtoes -3.05895
lfemur -9.34833 -2.92016 -29.9893
ltibia 27.5405
lfoot -12.6302 -7.43248
ltoes 10.2794
252
root -8.3495 17.3969 3.36002 -1.76671 0.662044 3.30604
lowerback 6.79486 -0.806958 -5.204
upperback 0.21352 -1.42851 1.40742
thorax -3.42975 -0.616277 4.52837
lowerneck -18.1369 -2.97387 -8.86431
upperneck 23.2421 -2.33299 3.0371
head 10.6306 -1.49238 2.2337
rclavicle 1.09083e-014 -5.56597e-015
rhumerus -32.9625 -15.884 -77.5276
rradius 29.7457
rwrist 6.38675
rhand -13.0863 10.5293
rfingers 7.12502
rthumb 13.01 -19.045
lclavicle 1.09083e-014 -5.56597e-015
lhumerus -30.6871 9.73354 84.9689
lradius 29.9024
lwrist -5.88874
lhand -18.0037 22.4016
lfingers 7.12502
lthumb 8.26675 52.2198
rfemur -24.797 -0.540018 14.6063
rtibia 54.7687
rfoot -10.4684 -11.018
rtoes -3.57329
lfemur -9.13089 -3.17253 -29.8815
ltibia 27.7595
lfoot -13.0786 -7.44319
ltoes 10.2407
253
root -8.34732 17.3926 3.47104 -1.56723 0.957095 3.17311
lowerback 6.80657 -0.847804 -5.14083
upperback 0.020164 -1.48068 1.44912
thorax -3.63219 -0.632267 4.54483
lowerneck -17.3925 -3.04334 -8.99314
upperneck 22.7004 -2.50738 3.19839
head 10.3069 -1.55886 2.28669
rclavicle 1.5704e-014 7.15625e-015
rhumerus -33.2161 -16.0159 -77.3142
rradius 29.5597
rwrist 6.88385
rhand -13.1354 9.94126
rfingers 7.12502
rthumb 12.9627 -19.6361
lclavicle 1.5704e-014 7.15625e-015
lhumerus -30.678 9.22411 85.0346
lradius 30.4235
lwrist -5.87841
lhand -18.4421 22.2167
lfingers 7.12502
lthumb 7.84365 52.0512
rfemur -25.2066 -0.285756 14.6012
rtibia 52.8245
rfoot -10.9406 -11.1593
rtoes -5.34284
lfemur -8.97494 -3.27765 -29.758
ltibia 27.8676
lfoot -13.4396 -7.66801
ltoes 10.954
254
root -8.34522 17.3822 3.5878 -1.41205 1.27954 3.26466
lowerback 6.89733 -0.91826 -5.32252
upperback -0.169128 -1.5972 1.45868
thorax -3.86241 -0.675002 4.675
lowerneck -17.2225 -3.04767 -9.11433
upperneck 22.6693 -2.5472 3.39632
head 10.2701 -1.56496 2.37289
rclavicle 1.13804e-014 -2.14687e-014
rhumerus -33.4096 -16.0799 -77.0221
rradius 29.4274
rwrist 8.05284
rhand -13.1196 10.6929
rfingers 7.12502
rthumb 12.9779 -18.8835
lclavicle 1.13804e-014 -2.14687e-014
lhumerus -30.6328 8.96755 85.0473
lradius 30.7858
lwrist -5.81581
lhand -17.72 24.472
lfingers 7.12502
lthumb 8.54052 54.2793
rfemur -25.4976 -0.150689 14.3174
rtibia 50.7899
rfoot -11.191 -11.054
rtoes -6.87523
lfemur -8.65808 -3.31258 -29.8925
ltibia 27.8485
lfoot -13.8518 -7.86046
ltoes 10.922
255
root -8.34769 17.3784 3.7034 -1.23813 1.59977 3.43698
lowerback 6.95093 -0.967385 -5.69171
upperback -0.356084 -1.6992 1.47725
thorax -4.06559 -0.706612 4.91911
lowerneck -17.2255 -3.00367 -9.13102
upperneck 22.9664 -2.49627 3.44605
head 10.3754 -1.54291 2.40413
rclavicle -1.87355e-014 -6.36111e-015
rhumerus -33.7893 -16.2219 -76.6209
rradius 29.8776
rwrist 10.1959
rhand -12.2333 9.49092
rfingers 7.12502
rthumb 13.8321 -20.0292
lclavicle -1.87355e-014 -6.36111e-015
lhumerus -30.7522 8.46921 85.1525
lradius 31.58
lwrist -5.53982
lhand -17.1241 26.3907
lfingers 7.12502
lthumb 9.11558 56.1737
rfemur -25.804 0.106663 13.9531
rtibia 48.6073
rfoot -10.3447 -11.2457
rtoes -5.91826
lfemur -8.34674 -3.43581 -30.0864
ltibia 27.7408
lfoot -14.2342 -7.84713
ltoes 10.404
256
root -8.351 17.3808 3.81759 -1.07386 1.83573 3.34417
lowerback 6.8273 -0.949158 -5.72226
upperback -0.384135 -1.67032 1.49103
thorax -4.02772 -0.692145 4.94487
lowerneck -17.3514 -3.11286 -8.92239
upperneck 23.1179 -2.65786 3.28904
head 10.4606 -1.61915 2.29067
rclavicle -2.11581e-014 -4.77083e-015
rhumerus -33.9593 -16.2968 -76.5067
rradius 29.2227
rwrist 8.30637
rhand -13.8418 12.7017
rfingers 7.12502
rthumb 12.2816 -16.9176
lclavicle -2.11581e-014 -4.77083e-015
lhumerus -30.6306 7.9018 85.2861
lradius 32.4964
lwrist -5.13271
lhand -16.7225 28.2336
lfingers 7.12502
lthumb 9.50311 57.9993
rfemur -26.0562 0.596158 13.8185
rtibia 46.3202
rfoot -9.35128 -11.3942
rtoes -0.99982
lfemur -7.97443 -3.57008 -29.9688
ltibia 27.5103
lfoot -14.5251 -7.88267
ltoes 10.1921
257
root -8.35425 17.3927 3.93949 -0.995288 2.23636 3.08985
lowerback 6.67572 -1.0298 -5.65289
upperback -0.261847 -1.75625 1.60914
thorax -3.80178 -0.746131 5.03018
lowerneck -17.8059 -3.19394 -8.80631
upperneck 23.266 -2.73277 3.18163
head 10.6035 -1.65499 2.22018
rclavicle 3.88873e-015 -3.18055e-015
rhumerus -33.8264 -16.472 -76.3605
rradius 29.4935
rwrist 9.60592
rhand -13.0624 10.8741
rfingers 7.12502
rthumb 13.033 -18.6988
lclavicle 3.88873e-015 -3.18055e-015
lhumerus -30.1419 7.56075 85.4202
lradius 32.9371
lwrist -4.71353
lhand -16.9516 27.9172
lfingers 7.12502
lthumb 9.282 57.6929
rfemur -26.0366 0.940145 13.7988
rtibia 43.908
rfoot -8.71479 -11.2417
rtoes 2.3537
lfemur -7.4647 -3.55163 -29.66
ltibia 27.2892
lfoot -14.8611 -8.26896
ltoes 10.319
258
root -8.35413 17.398 4.05949 -0.85508 2.64303 3.09244
lowerback 6.51717 -1.10252 -5.795
upperback -0.156401 -1.85107 1.66235
thorax -3.58436 -0.800511 5.16757
lowerneck -17.9678 -3.18897 -9.03351
upperneck 23.0594 -2.73069 3.53048
head 10.5663 -1.62646 2.38144
rclavicle -2.53202e-014 2.38542e-015
rhumerus -33.5125 -16.7482 -76.1642
rradius 29.1937
rwrist 10.4689
rhand -12.6903 10.4276
rfingers 7.12502
rthumb 13.3917 -19.1219
lclavicle -2.53202e-014 2.38542e-015
lhumerus -29.6806 7.5778 85.4781
lradius 33.2668
lwrist -4.86191
lhand -17.3083 27.4899
lfingers 7.12502
lthumb 8.93784 57.2806
rfemur -26.0286 1.10356 13.5135
rtibia 41.4843
rfoot -8.10985 -10.7892
rtoes 0.798886
lfemur -6.99744 -3.66429 -29.6535
ltibia 27.0499
lfoot -15.1951 -8.53085
ltoes 10.4589
